<svg xmlns="http://www.w3.org/2000/svg" xmlns:xlink="http://www.w3.org/1999/xlink" width="2200" zoomAndPan="magnify" viewBox="0 0 1650 1274.999945" height="1700" preserveAspectRatio="xMidYMid meet" version="1.0"><defs><clipPath id="b71f02824c"><path d="M 0 777.742188 L 658.910156 777.742188 L 658.910156 1274.992188 L 0 1274.992188 Z M 0 777.742188 " clip-rule="nonzero"/></clipPath><clipPath id="c4dcb01406"><path d="M 454 280 L 658.910156 280 L 658.910156 497 L 454 497 Z M 454 280 " clip-rule="nonzero"/></clipPath><clipPath id="6c4b4bd3d1"><rect x="0" width="659" y="0" height="498"/></clipPath></defs><path fill="#018baa" d="M 563.632812 61.148438 L 438.851562 185.929688 L 329.570312 295.25 L 220.253906 185.929688 L 95.472656 61.148438 L 155.554688 1.066406 L 503.511719 1.066406 Z M 563.632812 61.148438 " fill-opacity="1" fill-rule="nonzero"/><path fill="#77e0f0" d="M 658.71875 1.066406 L 658.71875 44.683594 L 485.96875 217.433594 L 485.96875 217.472656 L 485.933594 217.472656 L 485.894531 217.511719 L 454.429688 186.046875 L 579.285156 61.148438 L 519.203125 1.066406 Z M 658.71875 1.066406 " fill-opacity="1" fill-rule="nonzero"/><path fill="#77e0f0" d="M 204.289062 186.046875 L 172.824219 217.511719 L 0 44.683594 L 0 1.066406 L 139.511719 1.066406 L 79.429688 61.148438 Z M 204.289062 186.046875 " fill-opacity="1" fill-rule="nonzero"/><path fill="#77e0f0" d="M 173.246094 217.472656 L 67.8125 217.472656 L 120.511719 270.207031 L 173.210938 217.472656 Z M 173.246094 217.472656 " fill-opacity="1" fill-rule="nonzero"/><path fill="#018baa" d="M 0 45.109375 L 0 217.125 L 0.347656 217.433594 L 173.210938 217.433594 Z M 0 45.109375 " fill-opacity="1" fill-rule="nonzero"/><path fill="#018baa" d="M 0 217.125 L 0 496.113281 L 139.511719 356.601562 L 0.347656 217.472656 L 172.824219 217.472656 L 172.785156 217.433594 L 0.347656 217.433594 Z M 0 217.125 " fill-opacity="1" fill-rule="nonzero"/><path fill="#77e0f0" d="M 0 149.695312 L 0 217.125 L 0.347656 217.472656 L 139.511719 356.601562 L 173.210938 322.90625 L 120.550781 270.207031 L 120.511719 270.207031 L 120.511719 270.167969 L 67.8125 217.472656 L 67.777344 217.433594 Z M 0 149.695312 " fill-opacity="1" fill-rule="nonzero"/><g clip-path="url(#b71f02824c)"><g transform="matrix(1, 0, 0, 1, 0, 777)"><g clip-path="url(#6c4b4bd3d1)"><path fill="#018baa" d="M 563.632812 436.84375 L 446.582031 319.796875 L 438.851562 312.0625 L 329.570312 202.746094 L 95.472656 436.84375 L 155.554688 496.929688 L 503.511719 496.929688 Z M 563.632812 436.84375 " fill-opacity="1" fill-rule="nonzero"/><g clip-path="url(#c4dcb01406)"><path fill="#77e0f0" d="M 658.71875 496.929688 L 658.71875 453.308594 L 485.96875 280.5625 L 485.96875 280.523438 L 485.933594 280.523438 L 485.894531 280.484375 L 454.429688 311.949219 L 579.285156 436.84375 L 519.203125 496.929688 Z M 658.71875 496.929688 " fill-opacity="1" fill-rule="nonzero"/></g><path fill="#77e0f0" d="M 204.289062 311.949219 L 172.824219 280.484375 L 0 453.308594 L 0 496.929688 L 139.511719 496.929688 L 79.429688 436.84375 Z M 204.289062 311.949219 " fill-opacity="1" fill-rule="nonzero"/><path fill="#77e0f0" d="M 173.246094 280.523438 L 67.8125 280.523438 L 120.511719 227.785156 L 173.210938 280.523438 Z M 173.246094 280.523438 " fill-opacity="1" fill-rule="nonzero"/><path fill="#018baa" d="M 0 452.886719 L 0 280.867188 L 0.347656 280.5625 L 173.210938 280.5625 Z M 0 452.886719 " fill-opacity="1" fill-rule="nonzero"/><path fill="#018baa" d="M 0 280.867188 L 0 1.878906 L 139.511719 141.394531 L 0.347656 280.523438 L 172.824219 280.523438 L 172.785156 280.5625 L 0.347656 280.5625 Z M 0 280.867188 " fill-opacity="1" fill-rule="nonzero"/><path fill="#77e0f0" d="M 0 348.296875 L 0 280.867188 L 0.347656 280.523438 L 139.511719 141.394531 L 173.210938 175.089844 L 120.550781 227.785156 L 120.511719 227.785156 L 120.511719 227.824219 L 67.8125 280.523438 L 67.777344 280.5625 Z M 0 348.296875 " fill-opacity="1" fill-rule="nonzero"/></g></g></g></svg>