<svg xmlns="http://www.w3.org/2000/svg" xmlns:xlink="http://www.w3.org/1999/xlink" width="2200" zoomAndPan="magnify" viewBox="0 0 1650 1274.999945" height="1700" preserveAspectRatio="xMidYMid meet" version="1.0"><defs><clipPath id="9cc22c5113"><path d="M 787.746094 0 L 1540.648438 0 L 1540.648438 1059 L 787.746094 1059 Z M 787.746094 0 " clip-rule="nonzero"/></clipPath><clipPath id="cf9c06e6aa"><path d="M 1540.648438 -88.765625 L 1540.648438 916.761719 L 1164.199219 1058.84375 L 787.746094 916.761719 L 787.746094 -88.765625 Z M 1540.648438 -88.765625 " clip-rule="nonzero"/></clipPath><clipPath id="fb9a541ef5"><path d="M 0.746094 0 L 753.648438 0 L 753.648438 1058.878906 L 0.746094 1058.878906 Z M 0.746094 0 " clip-rule="nonzero"/></clipPath><clipPath id="61110e3e8b"><path d="M 753.648438 -88.765625 L 753.648438 916.761719 L 377.199219 1058.84375 L 0.746094 916.761719 L 0.746094 -88.765625 Z M 753.648438 -88.765625 " clip-rule="nonzero"/></clipPath><clipPath id="c73dfd24a7"><rect x="0" width="754" y="0" height="1059"/></clipPath></defs><g clip-path="url(#9cc22c5113)"><g clip-path="url(#cf9c06e6aa)"><g transform="matrix(1, 0, 0, 1, 787, -0.000000000000141101)"><g clip-path="url(#c73dfd24a7)"><g clip-path="url(#fb9a541ef5)"><g clip-path="url(#61110e3e8b)"><path fill="#018baa" d="M 0.746094 -88.765625 L 753.648438 -88.765625 L 753.648438 1058.230469 L 0.746094 1058.230469 Z M 0.746094 -88.765625 " fill-opacity="1" fill-rule="nonzero"/></g></g></g></g></g></g></svg>