<?xml version="1.0" encoding="UTF-8" standalone="no"?>
<svg
   width="2200"
   zoomAndPan="magnify"
   viewBox="0 0 1650 1274.999945"
   height="1700"
   preserveAspectRatio="xMidYMid meet"
   version="1.0"
   id="svg63"
   sodipodi:docname="Certificado 2.svg"
   inkscape:version="1.4.3 (0d15f75, 2025-12-25)"
   xmlns:inkscape="http://www.inkscape.org/namespaces/inkscape"
   xmlns:sodipodi="http://sodipodi.sourceforge.net/DTD/sodipodi-0.dtd"
   xmlns="http://www.w3.org/2000/svg"
   xmlns:svg="http://www.w3.org/2000/svg">
  <sodipodi:namedview
     id="namedview63"
     pagecolor="#ffffff"
     bordercolor="#000000"
     borderopacity="0.25"
     inkscape:showpageshadow="2"
     inkscape:pageopacity="0.0"
     inkscape:pagecheckerboard="0"
     inkscape:deskcolor="#d1d1d1"
     inkscape:zoom="0.26332968"
     inkscape:cx="1211.4092"
     inkscape:cy="620.8947"
     inkscape:window-width="1920"
     inkscape:window-height="991"
     inkscape:window-x="-9"
     inkscape:window-y="-9"
     inkscape:window-maximized="1"
     inkscape:current-layer="svg63" />
  <defs
     id="defs9">
    <g
       id="g1" />
    <clipPath
       id="3d28f1ed52">
      <rect
         x="0"
         width="481"
         y="0"
         height="181"
         id="rect1" />
    </clipPath>
    <clipPath
       id="f423d3cb26">
      <path
         d="M 75 75 L 1576 75 L 1576 1200 L 75 1200 Z M 75 75 "
         clip-rule="nonzero"
         id="path1" />
    </clipPath>
    <clipPath
       id="3005631f91">
      <path
         d="M 81.238281 124.378906 C 104.628906 123.730469 123.597656 104.757812 124.25 81.238281 L 216.484375 81.238281 L 216.484375 75 L 117.75 75 L 117.882812 78.25 L 117.882812 80.066406 C 117.882812 100.988281 100.859375 118.140625 79.808594 118.140625 L 78.117188 118.140625 L 75 118.011719 L 75 162.230469 L 81.238281 162.230469 Z M 95.140625 136.332031 C 115.152344 130.875 130.875 115.28125 136.203125 95.140625 L 216.484375 95.140625 L 216.484375 93.582031 L 134.902344 93.582031 L 134.773438 94.230469 C 129.707031 114.242188 114.113281 129.835938 94.101562 135.035156 L 93.453125 135.164062 L 93.453125 162.230469 L 95.011719 162.230469 Z M 75 162.230469 L 81.238281 162.230469 L 81.238281 1108.03125 L 75 1108.03125 Z M 93.582031 162.230469 L 95.140625 162.230469 L 95.140625 1108.03125 L 93.582031 1108.03125 Z M 216.484375 1193.761719 L 1446.378906 1193.761719 L 1446.378906 1200 L 216.484375 1200 Z M 216.484375 1179.859375 L 1446.378906 1179.859375 L 1446.378906 1181.417969 L 216.484375 1181.417969 Z M 124.25 1193.761719 C 124.117188 1169.851562 105.015625 1150.492188 81.238281 1149.710938 L 81.238281 1107.78125 L 75 1107.78125 L 75 1156.078125 L 78.636719 1155.949219 L 80.066406 1155.949219 C 100.988281 1155.949219 118.140625 1172.972656 118.140625 1194.023438 C 118.140625 1194.800781 118.140625 1195.582031 118.011719 1196.621094 L 117.75 1200 L 217.144531 1200 L 217.144531 1193.761719 Z M 136.464844 1179.859375 C 131.265625 1159.457031 115.671875 1143.34375 95.269531 1137.886719 L 95.269531 1108.03125 L 93.710938 1108.03125 L 93.710938 1139.1875 L 94.363281 1139.316406 C 114.632812 1144.644531 130.355469 1160.496094 135.164062 1180.898438 L 135.292969 1181.546875 L 217.144531 1181.546875 L 217.144531 1179.988281 Z M 1568.761719 1149.710938 C 1544.722656 1150.101562 1525.230469 1169.59375 1525.101562 1193.761719 L 1445.71875 1193.761719 L 1445.71875 1200 L 1531.730469 1200 L 1531.46875 1196.621094 C 1531.339844 1195.582031 1531.339844 1194.671875 1531.339844 1194.023438 C 1531.339844 1173.101562 1548.363281 1155.949219 1569.414062 1155.949219 C 1570.191406 1155.949219 1570.972656 1155.949219 1571.75 1156.078125 L 1575.128906 1156.339844 L 1575.128906 1108.03125 L 1568.890625 1108.03125 Z M 1554.859375 1137.628906 C 1534.457031 1142.953125 1518.085938 1159.328125 1513.015625 1179.730469 L 1446.378906 1179.730469 L 1446.378906 1181.289062 L 1514.316406 1181.289062 L 1514.445312 1180.636719 C 1519.382812 1160.238281 1535.628906 1143.863281 1555.898438 1138.925781 L 1556.546875 1138.796875 L 1556.546875 1107.53125 L 1554.988281 1107.53125 Z M 1568.761719 162.230469 L 1575 162.230469 L 1575 1108.03125 L 1568.761719 1108.03125 Z M 1554.859375 162.230469 L 1556.417969 162.230469 L 1556.417969 1108.03125 L 1554.859375 1108.03125 Z M 1525.101562 81.238281 C 1525.75 104.886719 1544.984375 124.117188 1568.761719 124.378906 L 1568.761719 161.980469 L 1575 161.980469 L 1575 117.882812 L 1571.621094 118.140625 C 1570.839844 118.140625 1570.0625 118.269531 1569.28125 118.269531 C 1548.363281 118.269531 1531.210938 101.25 1531.210938 80.199219 L 1531.210938 78.378906 L 1531.339844 75.128906 L 1444.398438 75.128906 L 1444.398438 81.367188 Z M 1513.148438 95.140625 C 1518.605469 115.414062 1534.457031 131.265625 1554.859375 136.464844 L 1554.859375 161.980469 L 1556.417969 161.980469 L 1556.417969 135.292969 L 1555.769531 135.164062 C 1535.496094 130.226562 1519.644531 114.503906 1514.445312 94.230469 L 1514.316406 93.582031 L 1445.71875 93.582031 L 1445.71875 95.140625 Z M 216.484375 75 L 1446.378906 75 L 1446.378906 81.238281 L 216.484375 81.238281 Z M 216.484375 93.582031 L 1446.378906 93.582031 L 1446.378906 95.140625 L 216.484375 95.140625 Z M 216.484375 93.582031 "
         clip-rule="nonzero"
         id="path2" />
    </clipPath>
    <clipPath
       id="d4e0f93f3a">
      <path
         d="M 0 0 L 1500 0 L 1500 1125 L 0 1125 Z M 0 0 "
         clip-rule="nonzero"
         id="path3" />
    </clipPath>
    <clipPath
       id="4d8bc70d3f">
      <path
         d="M 6.238281 49.378906 C 29.628906 48.730469 48.597656 29.757812 49.25 6.238281 L 141.484375 6.238281 L 141.484375 0 L 42.75 0 L 42.882812 3.25 L 42.882812 5.066406 C 42.882812 25.988281 25.859375 43.140625 4.808594 43.140625 L 3.117188 43.140625 L 0 43.011719 L 0 87.230469 L 6.238281 87.230469 Z M 20.140625 61.332031 C 40.152344 55.875 55.875 40.28125 61.203125 20.140625 L 141.484375 20.140625 L 141.484375 18.582031 L 59.902344 18.582031 L 59.773438 19.230469 C 54.707031 39.242188 39.113281 54.835938 19.101562 60.035156 L 18.453125 60.164062 L 18.453125 87.230469 L 20.011719 87.230469 Z M 0 87.230469 L 6.238281 87.230469 L 6.238281 1033.03125 L 0 1033.03125 Z M 18.582031 87.230469 L 20.140625 87.230469 L 20.140625 1033.03125 L 18.582031 1033.03125 Z M 141.484375 1118.761719 L 1371.378906 1118.761719 L 1371.378906 1125 L 141.484375 1125 Z M 141.484375 1104.859375 L 1371.378906 1104.859375 L 1371.378906 1106.417969 L 141.484375 1106.417969 Z M 49.25 1118.761719 C 49.117188 1094.851562 30.015625 1075.492188 6.238281 1074.710938 L 6.238281 1032.78125 L 0 1032.78125 L 0 1081.078125 L 3.636719 1080.949219 L 5.066406 1080.949219 C 25.988281 1080.949219 43.140625 1097.972656 43.140625 1119.023438 C 43.140625 1119.800781 43.140625 1120.582031 43.011719 1121.621094 L 42.75 1125 L 142.144531 1125 L 142.144531 1118.761719 Z M 61.464844 1104.859375 C 56.265625 1084.457031 40.671875 1068.34375 20.269531 1062.886719 L 20.269531 1033.03125 L 18.710938 1033.03125 L 18.710938 1064.1875 L 19.363281 1064.316406 C 39.632812 1069.644531 55.355469 1085.496094 60.164062 1105.898438 L 60.292969 1106.546875 L 142.144531 1106.546875 L 142.144531 1104.988281 Z M 1493.761719 1074.710938 C 1469.722656 1075.101562 1450.230469 1094.59375 1450.101562 1118.761719 L 1370.71875 1118.761719 L 1370.71875 1125 L 1456.730469 1125 L 1456.46875 1121.621094 C 1456.339844 1120.582031 1456.339844 1119.671875 1456.339844 1119.023438 C 1456.339844 1098.101562 1473.363281 1080.949219 1494.414062 1080.949219 C 1495.191406 1080.949219 1495.972656 1080.949219 1496.75 1081.078125 L 1500.128906 1081.339844 L 1500.128906 1033.03125 L 1493.890625 1033.03125 Z M 1479.859375 1062.628906 C 1459.457031 1067.953125 1443.085938 1084.328125 1438.015625 1104.730469 L 1371.378906 1104.730469 L 1371.378906 1106.289062 L 1439.316406 1106.289062 L 1439.445312 1105.636719 C 1444.382812 1085.238281 1460.628906 1068.863281 1480.898438 1063.925781 L 1481.546875 1063.796875 L 1481.546875 1032.53125 L 1479.988281 1032.53125 Z M 1493.761719 87.230469 L 1500 87.230469 L 1500 1033.03125 L 1493.761719 1033.03125 Z M 1479.859375 87.230469 L 1481.417969 87.230469 L 1481.417969 1033.03125 L 1479.859375 1033.03125 Z M 1450.101562 6.238281 C 1450.75 29.886719 1469.984375 49.117188 1493.761719 49.378906 L 1493.761719 86.980469 L 1500 86.980469 L 1500 42.882812 L 1496.621094 43.140625 C 1495.839844 43.140625 1495.0625 43.269531 1494.28125 43.269531 C 1473.363281 43.269531 1456.210938 26.25 1456.210938 5.199219 L 1456.210938 3.378906 L 1456.339844 0.128906 L 1369.398438 0.128906 L 1369.398438 6.367188 Z M 1438.148438 20.140625 C 1443.605469 40.414062 1459.457031 56.265625 1479.859375 61.464844 L 1479.859375 86.980469 L 1481.417969 86.980469 L 1481.417969 60.292969 L 1480.769531 60.164062 C 1460.496094 55.226562 1444.644531 39.503906 1439.445312 19.230469 L 1439.316406 18.582031 L 1370.71875 18.582031 L 1370.71875 20.140625 Z M 141.484375 0 L 1371.378906 0 L 1371.378906 6.238281 L 141.484375 6.238281 Z M 141.484375 18.582031 L 1371.378906 18.582031 L 1371.378906 20.140625 L 141.484375 20.140625 Z M 141.484375 18.582031 "
         clip-rule="nonzero"
         id="path4" />
    </clipPath>
    <clipPath
       id="876fb98625">
      <rect
         x="0"
         width="1501"
         y="0"
         height="1125"
         id="rect4" />
    </clipPath>
    <clipPath
       id="99f5a9701d">
      <path
         d="M 812.667969 983.335938 L 837.371094 983.335938 L 837.371094 1006.847656 L 812.667969 1006.847656 Z M 812.667969 983.335938 "
         clip-rule="nonzero"
         id="path5" />
    </clipPath>
    <clipPath
       id="6a016e5bce">
      <path
         d="M 825 983.335938 L 827.910156 992.316406 L 837.332031 992.316406 L 829.710938 997.867188 L 832.621094 1006.847656 L 825 1001.296875 L 817.378906 1006.847656 L 820.289062 997.867188 L 812.667969 992.316406 L 822.089844 992.316406 Z M 825 983.335938 "
         clip-rule="nonzero"
         id="path6" />
    </clipPath>
    <clipPath
       id="ac51eaa4ce">
      <path
         d="M 0.667969 0.335938 L 25.359375 0.335938 L 25.359375 23.847656 L 0.667969 23.847656 Z M 0.667969 0.335938 "
         clip-rule="nonzero"
         id="path7" />
    </clipPath>
    <clipPath
       id="5f4a9b75aa">
      <path
         d="M 13 0.335938 L 15.910156 9.316406 L 25.332031 9.316406 L 17.710938 14.867188 L 20.621094 23.847656 L 13 18.296875 L 5.378906 23.847656 L 8.289062 14.867188 L 0.667969 9.316406 L 10.089844 9.316406 Z M 13 0.335938 "
         clip-rule="nonzero"
         id="path8" />
    </clipPath>
    <clipPath
       id="ff23fcd774">
      <rect
         x="0"
         width="26"
         y="0"
         height="24"
         id="rect8" />
    </clipPath>
    <clipPath
       id="e3027f55be">
      <path
         d="M 507.332031 522.5625 L 1167.332031 522.5625 L 1167.332031 887.058594 L 507.332031 887.058594 Z M 507.332031 522.5625 "
         clip-rule="nonzero"
         id="path9" />
    </clipPath>
  </defs>
  <g id="g56">
    <rect x="78.119" y="78.119" width="1493.762" height="1118.762" rx="32.4" ry="32.4"
          fill="none" stroke="#018baa" stroke-width="6.238"/>
    <rect x="94.361" y="94.361" width="1461.278" height="1086.278" rx="12" ry="12"
          fill="none" stroke="#018baa" stroke-width="1.558"/>
  </g>
</svg>
