<?xml version="1.0" encoding="UTF-8" standalone="no"?>
<!-- Created with Inkscape (http://www.inkscape.org/) -->

<svg
   width="675"
   height="250"
   viewBox="0 0 675 250"
   version="1.1"
   id="svg1"
   xml:space="preserve"
   sodipodi:docname="AG_Principal.svg"
   inkscape:version="1.4.3 (0d15f75, 2025-12-25)"
   inkscape:export-filename="AG_Principal.2.png"
   inkscape:export-xdpi="500"
   inkscape:export-ydpi="500"
   xmlns:inkscape="http://www.inkscape.org/namespaces/inkscape"
   xmlns:sodipodi="http://sodipodi.sourceforge.net/DTD/sodipodi-0.dtd"
   xmlns:xlink="http://www.w3.org/1999/xlink"
   xmlns="http://www.w3.org/2000/svg"
   xmlns:svg="http://www.w3.org/2000/svg"><sodipodi:namedview
     id="namedview1"
     pagecolor="#ffffff"
     bordercolor="#000000"
     borderopacity="0.25"
     inkscape:showpageshadow="2"
     inkscape:pageopacity="0.0"
     inkscape:pagecheckerboard="0"
     inkscape:deskcolor="#d1d1d1"
     inkscape:zoom="1"
     inkscape:cx="363"
     inkscape:cy="128.5"
     inkscape:window-width="1920"
     inkscape:window-height="991"
     inkscape:window-x="-9"
     inkscape:window-y="-9"
     inkscape:window-maximized="1"
     inkscape:current-layer="svg1" /><defs
     id="defs1"><rect
       x="508"
       y="214"
       width="1562.7781"
       height="178.30785"
       id="rect21-4" /><rect
       x="508"
       y="214"
       width="1178"
       height="172"
       id="rect57" /><rect
       x="508"
       y="214"
       width="232.21239"
       height="179.63887"
       id="rect21-4-7-0" /><rect
       x="508"
       y="214"
       width="232.21239"
       height="179.63887"
       id="rect21-4-7-9" /><rect
       x="508"
       y="214"
       width="232.21239"
       height="179.63887"
       id="rect21-4-7-9-1" /><rect
       x="508"
       y="214"
       width="232.21239"
       height="179.63887"
       id="rect21-4-7-9-1-7" /><rect
       x="508"
       y="214"
       width="232.21239"
       height="179.63887"
       id="rect21-4-7-9-19" /><rect
       x="508"
       y="214"
       width="232.21239"
       height="179.63887"
       id="rect21-4-7-9-19-0" /><rect
       x="508"
       y="214"
       width="232.21239"
       height="179.63887"
       id="rect21-4-7-9-19-0-7" /><rect
       x="508"
       y="214"
       width="232.21239"
       height="179.63887"
       id="rect21-4-7-3" /><linearGradient
       inkscape:collect="always"
       xlink:href="#linearGradient93"
       id="linearGradient94"
       x1="166.01808"
       y1="292.4819"
       x2="252.61487"
       y2="639.80261"
       gradientUnits="userSpaceOnUse"
       gradientTransform="matrix(0.16435106,0,0,0.16390758,45.013628,46.127694)" /><linearGradient
       id="linearGradient93"
       inkscape:collect="always"><stop
         style="stop-color:#e6fa78;stop-opacity:1;"
         offset="0.28256881"
         id="stop93" /><stop
         style="stop-color:#ade688;stop-opacity:0.14321607;"
         offset="0.67522937"
         id="stop94" /></linearGradient><linearGradient
       inkscape:collect="always"
       xlink:href="#linearGradient78"
       id="linearGradient79"
       x1="110.7477"
       y1="706.78796"
       x2="406.75122"
       y2="899.52527"
       gradientUnits="userSpaceOnUse"
       gradientTransform="matrix(0.16435106,0,0,0.16390758,45.013628,46.127694)" /><linearGradient
       id="linearGradient78"
       inkscape:collect="always"><stop
         style="stop-color:#70d2a6;stop-opacity:1;"
         offset="0"
         id="stop78" /><stop
         style="stop-color:#259a9f;stop-opacity:1;"
         offset="0.54678899"
         id="stop79" /></linearGradient><linearGradient
       inkscape:collect="always"
       xlink:href="#linearGradient85"
       id="linearGradient86"
       x1="465.48715"
       y1="950.95673"
       x2="465.48715"
       y2="673.08496"
       gradientUnits="userSpaceOnUse"
       gradientTransform="matrix(0.16435106,0,0,0.16390758,45.013628,46.127694)" /><linearGradient
       id="linearGradient85"
       inkscape:collect="always"><stop
         style="stop-color:#2f8c98;stop-opacity:1;"
         offset="0.38165137"
         id="stop85" /><stop
         style="stop-color:#2f8c98;stop-opacity:0;"
         offset="0.7743119"
         id="stop86" /></linearGradient><linearGradient
       inkscape:collect="always"
       xlink:href="#linearGradient91"
       id="linearGradient92"
       x1="120.78475"
       y1="435.60828"
       x2="407.12457"
       y2="802.10651"
       gradientUnits="userSpaceOnUse"
       gradientTransform="matrix(0.16435106,0,0,0.16390758,45.013628,46.127694)" /><linearGradient
       id="linearGradient91"
       inkscape:collect="always"><stop
         style="stop-color:#ade688;stop-opacity:1;"
         offset="0.14311926"
         id="stop91" /><stop
         style="stop-color:#37b6b5;stop-opacity:1;"
         offset="1"
         id="stop92" /></linearGradient><linearGradient
       inkscape:collect="always"
       xlink:href="#linearGradient71"
       id="linearGradient72"
       x1="454.7688"
       y1="879.74237"
       x2="281.72934"
       y2="694.73499"
       gradientUnits="userSpaceOnUse"
       gradientTransform="matrix(0.16435106,0,0,0.16390758,45.013628,46.127694)" /><linearGradient
       id="linearGradient71"
       inkscape:collect="always"><stop
         style="stop-color:#42abab;stop-opacity:1;"
         offset="0.05137615"
         id="stop71" /><stop
         style="stop-color:#91d5d6;stop-opacity:1;"
         offset="0.73211008"
         id="stop72" /></linearGradient><linearGradient
       inkscape:collect="always"
       xlink:href="#gradient_1"
       id="linearGradient69"
       x1="512.79102"
       y1="926.78741"
       x2="131.72614"
       y2="512.79102"
       gradientUnits="userSpaceOnUse"
       gradientTransform="matrix(0.16435106,0,0,0.16390758,45.013628,46.127694)" /><linearGradient
       id="gradient_1"
       gradientUnits="userSpaceOnUse"
       x1="317.54883"
       y1="742.16339"
       x2="170.98097"
       y2="522.97064"><stop
         offset="0.32760176"
         stop-color="#B2F2EE"
         id="stop3"
         style="stop-color:#90e1de;stop-opacity:1;" /><stop
         offset="0.76687247"
         stop-color="white"
         id="stop4"
         style="stop-color:#ffffff;stop-opacity:1;" /></linearGradient><linearGradient
       inkscape:collect="always"
       xlink:href="#linearGradient318"
       id="linearGradient319"
       x1="787.69379"
       y1="565.56409"
       x2="-438.20813"
       y2="560.14746"
       gradientUnits="userSpaceOnUse"
       gradientTransform="matrix(0.16435106,0,0,0.16390758,45.013628,46.127694)" /><linearGradient
       id="linearGradient318"
       inkscape:collect="always"><stop
         style="stop-color:#075382;stop-opacity:1;"
         offset="0.06055047"
         id="stop318" /><stop
         style="stop-color:#05598b;stop-opacity:0.18592964;"
         offset="0.42201838"
         id="stop319" /></linearGradient><linearGradient
       id="gradient_0"
       gradientUnits="userSpaceOnUse"
       x1="499.02887"
       y1="685.97064"
       x2="530.35669"
       y2="220.91019"
       xlink:href="#linearGradient314"
       gradientTransform="matrix(0.16435106,0,0,0.16390758,45.013628,46.127694)"><stop
         offset="0"
         stop-color="#088F92"
         id="stop1" /><stop
         offset="1"
         stop-color="#30C2F5"
         id="stop2" /></linearGradient><linearGradient
       id="linearGradient314"
       gradientUnits="userSpaceOnUse"
       x1="499.02887"
       y1="685.97064"
       x2="530.35669"
       y2="220.91019"
       spreadMethod="pad"><stop
         offset="0.26055047"
         stop-color="#088F92"
         id="stop313" /><stop
         offset="1"
         stop-color="#30C2F5"
         id="stop314" /></linearGradient></defs><path
     id="rect2"
     style="display:none;fill:none;stroke:#000000;stroke-width:0.499999;stroke-miterlimit:0;stroke-opacity:0"
     d="M 0.24999995,0.25 H 674.74998 v 249.5 H 0.24999995 Z"
     inkscape:label="Safe Space" /><path
     d="m 100.5248,50.002572 c -0.1528,-0.0073 -0.30252,0.0015 -0.44715,0.02945 -8.063641,1.559627 -33.949204,37.751688 -44.315398,63.114348 -1.958194,4.74578 -4.12699,11.17183 -5.091352,16.1561 -0.667085,3.44779 -0.506398,11.12909 0.06709,14.46068 6.537631,38.92477 77.17204,23.18699 68.40182,55.60885 3.69917,-6.16522 6.74892,-15.62471 7.29546,-21.90593 22.09615,-13.14992 23.78621,-37.61311 23.5454,-41.48085 -1.63396,-35.5945 -44.34613,-85.738388 -49.45587,-85.98265 z"
     style="display:inline;fill:url(#gradient_0);stroke-width:1"
     id="path94"
     sodipodi:nodetypes="sccsccccs"
     inkscape:label="Gota"
     clip-path="none"
     mask="none" /><path
     id="path317"
     style="display:inline;fill:url(#linearGradient319);fill-opacity:1;stroke-width:1"
     inkscape:label="GotaLinea"
     d="m 126.41427,177.54092 c 10.93871,-6.5283 24.58275,-23.43821 23.41746,-43.67945 -3.15791,15.32327 -9.79989,21.74253 -16.03515,25.88459 -2.72272,-38.043 -60.929607,-31.4459 -68.931142,-59.27596 0.0075,0.43973 0.02106,0.87255 0.04045,1.2991 3.418269,32.59767 34.178055,25.79229 53.072872,45.06177 6.79624,8.44691 9.4189,19.67473 8.43551,30.70995 z"
     clip-path="none"
     mask="none" /><path
     id="path325"
     style="display:inline;mix-blend-mode:normal;fill:#000000;fill-opacity:0.107595;stroke-width:1"
     inkscape:label="GotaIzquierda"
     d="m 111.86599,141.67717 c 8.16834,-37.30751 -6.66839,-79.900142 -11.26286,-91.667235 -0.0708,-0.0095 -0.28673,-0.02409 -0.52548,0.02209 C 93.804,51.24544 76.742591,73.422101 64.595158,95.152387 64.43495,131.4665 91.779714,127.6221 111.86599,141.67717 Z"
     sodipodi:nodetypes="ccccc"
     clip-path="none"
     mask="none" /><path
     id="path331"
     style="display:inline;fill:#33c5fc;fill-opacity:0.696203;stroke-width:1"
     inkscape:label="GotaPunta"
     d="M 78.445907,73.141392 C 94.696582,74.898793 124.84991,91.650125 139.2956,101.26691 125.83495,74.494812 104.07972,50.172508 100.5248,50.002572 c -0.1528,-0.0073 -0.30252,0.0015 -0.44715,0.02945 -4.083465,0.789802 -12.73744,10.460796 -21.631743,23.109368 z"
     clip-path="none"
     mask="none" /><path
     d="m 62.176888,108.72821 c -6.569851,21.32042 -15.297456,40.23994 4.66072,62.49447 30.380683,20.33778 57.754772,1.28204 52.070082,28.6985 32.37841,-54.32182 -55.421136,-51.97483 -56.730802,-91.19297 z"
     style="display:inline;fill:url(#linearGradient69);stroke-width:1"
     id="path77"
     sodipodi:nodetypes="cccc"
     inkscape:label="HojaBlanco"
     clip-path="none"
     mask="none" /><path
     d="m 91.731429,160.09872 c 14.810671,17.82649 7.25715,20.98643 0.62166,18.71811 2.052317,2.10082 10.723411,5.66546 17.152771,5.15404 3.25081,-0.31953 8.72158,2.80331 9.85953,6.56053 0.11455,-12.10334 -12.60904,-23.22004 -27.633961,-30.43268 z"
     style="display:inline;fill:url(#linearGradient72);stroke-width:1"
     id="path72"
     sodipodi:nodetypes="ccccc"
     inkscape:label="HojaInterior"
     clip-path="none"
     mask="none" /><path
     d="M 64.595158,95.144703 C 25.371826,154.94406 77.066389,184.98638 91.19146,181.88287 66.182449,163.63639 65.515553,146.78897 69.633865,132.63184 c 11.594476,16.2798 35.948845,11.6969 46.583575,29.22261 6.3788,12.20328 4.40337,32.72607 2.66717,38.12708 10.12612,-15.85221 10.78716,-38.61756 -0.90585,-53.15056 C 97.89721,126.35123 64.41356,135.32474 64.595158,95.144703 Z"
     style="display:inline;fill:url(#linearGradient92);fill-opacity:1;stroke-width:1"
     id="path90"
     sodipodi:nodetypes="ccccccc"
     inkscape:label="Hoja"
     clip-path="none"
     mask="none" /><path
     fill="#1e9f99"
     d="m 125.3674,162.22291 c 1.99669,8.16259 2.58872,24.03653 -6.50164,37.77709 1.41801,-5.26515 3.84134,-24.06423 -2.23503,-37.35424 5.17801,6.63504 6.25224,12.09736 7.15223,14.47613 1.92685,-3.37584 1.87382,-11.93954 1.58444,-14.89898 z"
     id="path14"
     sodipodi:nodetypes="ccccc"
     style="display:inline;fill:url(#linearGradient86);stroke-width:1"
     inkscape:label="HojaRama"
     clip-path="none"
     mask="none" /><path
     id="path78"
     style="display:inline;fill:url(#linearGradient79);fill-opacity:1;fill-rule:nonzero;stroke:none;stroke-width:1"
     d="m 71.467407,160.43883 c 0.744145,5.55743 6.403681,13.43952 11.740188,16.60684 -7.910585,-0.38226 -14.759621,-3.97684 -16.72882,-5.19382 16.870987,15.87312 37.259435,13.48166 43.657035,12.09587 -2.21728,-0.36698 -4.48747,-0.84478 -6.76789,-1.43871 -12.85791,-3.3488 -26.041304,-10.38931 -31.900513,-22.07018 z"
     sodipodi:nodetypes="ccccsc"
     inkscape:label="HojaLateral"
     clip-path="none"
     mask="none" /><path
     d="m 64.595217,95.144662 c -10.3415,14.786448 -18.663126,36.668018 -12.473149,54.774568 -1.224102,-11.90157 4.39891,-29.30385 9.162416,-34.43989 12.480529,17.88608 24.011747,13.8148 47.545536,24.12674 -14.075894,-7.5566 -24.650062,-9.5355 -32.553499,-15.80927 C 69.65682,118.54207 64.887644,111.69277 64.595217,95.144662 Z"
     style="display:inline;fill:url(#linearGradient94);stroke-width:1"
     id="path89"
     sodipodi:nodetypes="ccccsc"
     sodipodi:insensitive="true"
     inkscape:label="HojaPunta"
     clip-path="none"
     mask="none" /><path
     d="m 185.8512,187.49998 q -3.12661,0 -5.59419,-1.51171 -2.45225,-1.52795 -3.8623,-4.32379 Q 175,178.85239 175,175.01624 q 0,-3.86866 1.39471,-6.68075 1.41005,-2.81208 3.8623,-4.32378 2.46758,-1.51171 5.59419,-1.51171 2.00778,0 3.72435,0.63394 1.71658,0.63394 3.03466,1.80429 1.33342,1.17035 2.17638,2.81209 0.84296,1.64174 1.11884,3.6736 h -4.76656 q -0.19925,-1.07283 -0.65905,-1.90182 -0.45979,-0.84526 -1.13416,-1.41417 -0.67437,-0.58517 -1.54799,-0.87776 -0.85829,-0.30885 -1.88517,-0.30885 -1.94647,0 -3.32586,0.99155 -1.36406,0.99155 -2.09973,2.81209 -0.73568,1.80428 -0.73568,4.29128 0,2.47074 0.72035,4.27503 0.73567,1.80429 2.11506,2.79584 1.37939,0.99155 3.32586,0.99155 1.02688,0 1.88517,-0.29259 0.85829,-0.29259 1.53266,-0.87776 0.67437,-0.58518 1.13417,-1.41418 0.4598,-0.829 0.68969,-1.88556 h 4.75124 q -0.27588,2.0156 -1.11884,3.65734 -0.84296,1.64175 -2.17638,2.8121 -1.3334,1.17035 -3.04998,1.80428 -1.70125,0.61769 -3.70903,0.61769 z m 22.69864,0 q -3.06531,0 -5.50224,-1.51171 -2.43692,-1.52795 -3.84697,-4.32379 -1.41003,-2.81209 -1.41003,-6.64824 0,-3.86866 1.41003,-6.66449 1.41005,-2.81209 3.84697,-4.32379 2.43693,-1.52796 5.50224,-1.52796 3.08064,0 5.51757,1.52796 2.43691,1.5117 3.84696,4.32379 1.41004,2.79583 1.41004,6.66449 0,3.8524 -1.41004,6.64824 -1.41005,2.79584 -3.84696,4.32379 -2.43693,1.51171 -5.51757,1.51171 z m 0,-4.42132 q 1.76255,0 3.12662,-0.94279 1.36406,-0.94278 2.13039,-2.74707 0.76632,-1.80429 0.76632,-4.37256 0,-2.58452 -0.76632,-4.38881 -0.76633,-1.82055 -2.13039,-2.76332 -1.36407,-0.94279 -3.12662,-0.94279 -1.74723,0 -3.11129,0.94279 -1.34874,0.94277 -2.13039,2.76332 -0.76633,1.80429 -0.76633,4.38881 0,2.56827 0.76633,4.37256 0.78165,1.80429 2.13039,2.74707 1.36406,0.94279 3.11129,0.94279 z m 13.4414,4.0312 v -24.21974 h 4.9658 l 7.34143,12.3862 q 0.33717,0.56892 0.85829,1.52796 0.5211,0.95904 1.08818,2.06436 0.58241,1.08908 1.10351,2.11314 l -0.53643,1.28413 q -0.046,-1.10533 -0.0919,-2.53575 -0.0459,-1.44669 -0.0613,-2.77959 -0.0154,-1.3329 -0.0154,-2.08063 v -11.97982 h 4.70526 v 24.21974 h -4.98113 l -6.65172,-11.21585 q -0.41383,-0.69897 -1.04222,-1.82055 -0.62839,-1.13784 -1.41004,-2.56827 -0.76633,-1.44668 -1.59396,-3.05591 l 0.82763,-0.56892 q 0.092,1.78803 0.13794,3.36476 0.046,1.56046 0.0613,2.76332 0.0153,1.1866 0.0153,1.86931 v 11.23211 z m 31.40412,0.39012 q -2.92737,0 -4.99646,-0.9753 -2.06909,-0.99155 -3.1726,-2.86085 -1.10351,-1.86931 -1.10351,-4.5026 h 4.55198 q 0.0307,1.3329 0.59774,2.27569 0.58241,0.94277 1.63994,1.44667 1.05754,0.5039 2.51356,0.5039 1.31808,0 2.28366,-0.37386 0.9809,-0.39011 1.51733,-1.08907 0.55175,-0.69897 0.55175,-1.64174 0,-0.78024 -0.42914,-1.34915 -0.41381,-0.58518 -1.31808,-1.02406 -0.88895,-0.43888 -2.34497,-0.76398 l -2.40627,-0.55266 q -3.4025,-0.78024 -5.05776,-2.45449 -1.65527,-1.67425 -1.65527,-4.27502 0,-2.21067 1.08819,-3.85241 1.08818,-1.65799 3.03466,-2.58452 1.96179,-0.92653 4.55198,-0.92653 2.62085,0 4.53666,0.94278 1.91583,0.94279 2.97336,2.69831 1.07286,1.73927 1.14949,4.1775 h -4.41405 q -0.12261,-1.72302 -1.25678,-2.71456 -1.13417,-0.99155 -2.97335,-0.99155 -1.1495,0 -2.05376,0.39011 -0.88894,0.37387 -1.41004,1.05658 -0.50578,0.6827 -0.50578,1.56046 0,0.74773 0.39849,1.30039 0.39849,0.53641 1.2721,0.94278 0.87361,0.40637 2.26834,0.73147 l 2.19169,0.5039 q 1.82387,0.42262 3.15727,1.04031 1.33341,0.60143 2.1917,1.44669 0.85829,0.82899 1.27211,1.91806 0.41382,1.08908 0.41382,2.45449 0,2.32445 -1.10351,4.03121 -1.08819,1.6905 -3.12663,2.60078 -2.0231,0.91027 -4.82786,0.91027 z m 21.1813,0 q -2.85073,0 -4.9658,-1.10534 -2.09974,-1.12158 -3.26456,-3.10467 -1.16482,-1.99935 -1.16482,-4.61639 v -15.78346 h 4.6133 v 15.3771 q 0,1.43042 0.58241,2.53575 0.59773,1.10534 1.67059,1.73927 1.08819,0.63394 2.52888,0.63394 1.45603,0 2.52888,-0.63394 1.07287,-0.63393 1.67061,-1.73927 0.59773,-1.10533 0.59773,-2.53575 v -15.3771 h 4.61329 v 15.78346 q 0,2.61704 -1.16482,4.61639 -1.16481,1.98309 -3.27988,3.10467 -2.11507,1.10534 -4.96581,1.10534 z m 12.75171,-0.39012 v -24.21974 h 4.72058 v 19.92846 h 10.37608 v 4.29128 z m 13.58579,-19.92846 v -4.29128 h 18.56046 v 4.29128 h -6.91227 v 19.92846 h -4.72059 V 167.1814 Z m 29.76939,20.31858 q -3.06531,0 -5.50224,-1.51171 -2.43692,-1.52795 -3.84696,-4.32379 -1.41005,-2.81209 -1.41005,-6.64824 0,-3.86866 1.41005,-6.66449 1.41004,-2.81209 3.84696,-4.32379 2.43693,-1.52796 5.50224,-1.52796 3.08064,0 5.51756,1.52796 2.43693,1.5117 3.84696,4.32379 1.41005,2.79583 1.41005,6.66449 0,3.8524 -1.41005,6.64824 -1.41003,2.79584 -3.84696,4.32379 -2.43692,1.51171 -5.51756,1.51171 z m 0,-4.42132 q 1.76256,0 3.12662,-0.94279 1.36406,-0.94278 2.13039,-2.74707 0.76633,-1.80429 0.76633,-4.37256 0,-2.58452 -0.76633,-4.38881 -0.76633,-1.82055 -2.13039,-2.76332 -1.36406,-0.94279 -3.12662,-0.94279 -1.74723,0 -3.11129,0.94279 -1.34874,0.94277 -2.13039,2.76332 -0.76634,1.80429 -0.76634,4.38881 0,2.56827 0.76634,4.37256 0.78165,1.80429 2.13039,2.74707 1.36406,0.94279 3.11129,0.94279 z m 13.4414,4.0312 v -24.21974 h 9.13462 q 2.57487,0 4.4447,0.97529 1.88517,0.95903 2.89673,2.74707 1.02688,1.77178 1.02688,4.22626 0,2.38947 -1.07287,4.14499 -1.07285,1.75553 -3.01932,2.71456 -1.93115,0.94279 -4.552,0.94279 h -6.02333 v -4.01495 h 6.02333 q 1.24146,0 2.14573,-0.4714 0.90426,-0.47139 1.39471,-1.31664 0.49045,-0.86151 0.49045,-1.99935 0,-1.17035 -0.49045,-1.99935 -0.49045,-0.84525 -1.39471,-1.31663 -0.90427,-0.4714 -2.16105,-0.4714 h -4.12285 v 20.0585 z m 12.95094,0 -5.22636,-10.93952 h 4.95048 l 5.33364,10.93952 z m 7.46404,0 v -24.21974 h 16.38409 v 4.29128 H 369.2605 v 5.60793 h 10.7899 v 4.1775 h -10.7899 v 5.85175 h 11.66352 v 4.29128 z m 27.72574,0.39012 q -2.92737,0 -4.99646,-0.9753 -2.06908,-0.99155 -3.17259,-2.86085 -1.10351,-1.86931 -1.10351,-4.5026 h 4.55198 q 0.0307,1.3329 0.59774,2.27569 0.58241,0.94277 1.63994,1.44667 1.05754,0.5039 2.51356,0.5039 1.31808,0 2.28366,-0.37386 0.98089,-0.39011 1.51732,-1.08907 0.55176,-0.69897 0.55176,-1.64174 0,-0.78024 -0.42915,-1.34915 -0.41381,-0.58518 -1.31808,-1.02406 -0.88894,-0.43888 -2.34496,-0.76398 l -2.40627,-0.55266 q -3.4025,-0.78024 -5.05777,-2.45449 -1.65527,-1.67425 -1.65527,-4.27502 0,-2.21067 1.08819,-3.85241 1.08818,-1.65799 3.03465,-2.58452 1.96181,-0.92653 4.552,-0.92653 2.62084,0 4.53666,0.94278 1.91582,0.94279 2.97335,2.69831 1.07286,1.73927 1.1495,4.1775 h -4.41405 q -0.12262,-1.72302 -1.25678,-2.71456 -1.13417,-0.99155 -2.97336,-0.99155 -1.14949,0 -2.05376,0.39011 -0.88893,0.37387 -1.41004,1.05658 -0.50577,0.6827 -0.50577,1.56046 0,0.74773 0.39849,1.30039 0.39849,0.53641 1.2721,0.94278 0.87361,0.40637 2.26833,0.73147 l 2.1917,0.5039 q 1.82386,0.42262 3.15727,1.04031 1.33341,0.60143 2.1917,1.44669 0.85829,0.82899 1.2721,1.91806 0.41382,1.08908 0.41382,2.45449 0,2.32445 -1.10351,4.03121 -1.08819,1.6905 -3.12662,2.60078 -2.02311,0.91027 -4.82787,0.91027 z m 16.99716,-0.39012 8.0158,-24.21974 h 6.06931 l 8.0158,24.21974 h -5.22637 l -3.58641,-11.78478 q -0.65904,-2.32444 -1.36406,-4.77892 -0.6897,-2.47074 -1.502,-5.60793 h 1.30276 q -0.84297,3.13719 -1.54799,5.60793 -0.6897,2.45448 -1.3794,4.77892 l -3.70902,11.78478 z m 5.08842,-5.28283 v -3.9987 h 11.93939 v 3.9987 z m 18.86701,5.28283 v -24.21974 h 6.88163 l 3.77033,11.28087 q 0.2299,0.76398 0.55175,1.88557 0.32186,1.10532 0.65905,2.32443 0.33719,1.20287 0.61306,2.3082 0.29121,1.10533 0.47513,1.8368 h -1.18015 q 0.18391,-0.73147 0.45979,-1.8368 0.29121,-1.10533 0.62839,-2.3082 0.33719,-1.21911 0.64372,-2.32443 0.32186,-1.12159 0.53643,-1.88557 l 3.72436,-11.28087 h 6.88162 v 24.21974 h -4.62862 v -11.50844 q 0,-0.81274 0.0307,-1.93433 0.0307,-1.12158 0.0613,-2.38946 0.0307,-1.28414 0.0613,-2.58452 0.0307,-1.31665 0.0459,-2.487 h 0.56708 q -0.35251,1.28413 -0.73567,2.63328 -0.36785,1.34916 -0.72036,2.61704 -0.35251,1.26788 -0.67436,2.3407 -0.30654,1.05656 -0.53643,1.80429 l -3.86229,11.50844 h -3.83165 L 439.732,175.60142 q -0.2299,-0.74773 -0.55176,-1.80429 -0.32185,-1.07282 -0.68969,-2.3407 -0.35251,-1.26788 -0.751,-2.61704 -0.38317,-1.34915 -0.751,-2.63328 h 0.67437 q 0.0153,1.17035 0.0459,2.487 0.0307,1.30038 0.0613,2.58452 0.0307,1.26788 0.0459,2.38946 0.0307,1.12159 0.0307,1.93433 v 11.50844 z m 28.06291,0 v -24.21974 h 9.14995 q 2.45225,0 4.16883,0.78023 1.7319,0.78023 2.62084,2.17815 0.88894,1.39792 0.88894,3.26723 0,1.39791 -0.50578,2.48699 -0.49044,1.07282 -1.41004,1.78804 -0.91959,0.71521 -2.17637,1.05656 v 0.0325 q 1.39471,0.13004 2.51356,0.86151 1.11883,0.71522 1.76254,1.96684 0.65905,1.25163 0.65905,2.97464 0,2.0156 -0.91959,3.55981 -0.90427,1.54421 -2.69748,2.40573 -1.79321,0.8615 -4.3834,0.8615 z m 4.61329,-3.93368 h 4.39873 q 1.82386,0 2.8354,-0.829 1.01156,-0.829 1.01156,-2.3407 0,-1.0078 -0.44447,-1.73926 -0.44447,-0.74773 -1.28743,-1.13785 -0.84296,-0.40636 -2.03844,-0.40636 h -4.47535 z m 0,-10.2243 h 4.18415 q 1.04221,0 1.77788,-0.37386 0.751,-0.37386 1.14949,-1.05658 0.41382,-0.69895 0.41382,-1.62547 0,-1.41418 -0.88894,-2.24318 -0.88894,-0.829 -2.45225,-0.829 h -4.18415 z m 20.33836,-10.06176 v 24.21974 h -4.72058 v -24.21974 z m 3.40248,24.21974 v -24.21974 h 16.3841 v 4.29128 h -11.66351 v 5.60793 h 10.7899 v 4.1775 h -10.7899 v 5.85175 h 11.66351 v 4.29128 z m 19.08157,0 v -24.21974 h 4.96581 l 7.34143,12.3862 q 0.33718,0.56892 0.85828,1.52796 0.52111,0.95904 1.08819,2.06436 0.58241,1.08908 1.10351,2.11314 l -0.53643,1.28413 q -0.046,-1.10533 -0.092,-2.53575 -0.046,-1.44669 -0.0613,-2.77959 -0.0153,-1.3329 -0.0153,-2.08063 v -11.97982 h 4.70525 v 24.21974 h -4.98113 l -6.65173,-11.21585 q -0.41381,-0.69897 -1.0422,-1.82055 -0.62839,-1.13784 -1.41005,-2.56827 -0.76632,-1.44668 -1.59396,-3.05591 l 0.82764,-0.56892 q 0.0919,1.78803 0.13793,3.36476 0.0459,1.56046 0.0613,2.76332 0.0153,1.1866 0.0153,1.86931 v 11.23211 z m 21.74841,-19.92846 v -4.29128 h 18.56046 v 4.29128 h -6.91227 v 19.92846 h -4.72059 V 167.1814 Z m 16.32278,19.92846 8.01579,-24.21974 h 6.06932 l 8.01579,24.21974 h -5.22635 l -3.58642,-11.78478 q -0.65904,-2.32444 -1.36407,-4.77892 -0.68969,-2.47074 -1.502,-5.60793 h 1.30276 q -0.84296,3.13719 -1.54798,5.60793 -0.6897,2.45448 -1.37939,4.77892 l -3.70903,11.78478 z m 5.08842,-5.28283 v -3.9987 h 11.93939 v 3.9987 z m 18.86701,5.28283 v -24.21974 h 4.72057 v 19.92846 h 10.37609 v 4.29128 z m 17.47227,0 v -24.21974 h 16.38409 v 4.29128 h -11.66352 v 5.60793 h 10.78991 v 4.1775 h -10.78991 v 5.85175 h 11.66352 v 4.29128 z m 27.72575,0.39012 q -2.92737,0 -4.99646,-0.9753 -2.06909,-0.99155 -3.1726,-2.86085 -1.10351,-1.86931 -1.10351,-4.5026 h 4.55198 q 0.0307,1.3329 0.59774,2.27569 0.58241,0.94277 1.63994,1.44667 1.05754,0.5039 2.51356,0.5039 1.31808,0 2.28366,-0.37386 0.9809,-0.39011 1.51733,-1.08907 0.55175,-0.69897 0.55175,-1.64174 0,-0.78024 -0.42914,-1.34915 -0.41382,-0.58518 -1.31808,-1.02406 -0.88895,-0.43888 -2.34497,-0.76398 l -2.40627,-0.55266 q -3.4025,-0.78024 -5.05776,-2.45449 -1.65527,-1.67425 -1.65527,-4.27502 0,-2.21067 1.08819,-3.85241 1.08818,-1.65799 3.03466,-2.58452 1.96179,-0.92653 4.55198,-0.92653 2.62085,0 4.53666,0.94278 1.91583,0.94279 2.97336,2.69831 1.07286,1.73927 1.14949,4.1775 h -4.41405 q -0.12261,-1.72302 -1.25678,-2.71456 -1.13417,-0.99155 -2.97335,-0.99155 -1.1495,0 -2.05377,0.39011 -0.88893,0.37387 -1.41003,1.05658 -0.50578,0.6827 -0.50578,1.56046 0,0.74773 0.39849,1.30039 0.39849,0.53641 1.2721,0.94278 0.87361,0.40637 2.26834,0.73147 l 2.19169,0.5039 q 1.82387,0.42262 3.15727,1.04031 1.33341,0.60143 2.1917,1.44669 0.85829,0.82899 1.2721,1.91806 0.41383,1.08908 0.41383,2.45449 0,2.32445 -1.10352,4.03121 -1.08819,1.6905 -3.12662,2.60078 -2.0231,0.91027 -4.82786,0.91027 z"
     id="text58"
     style="font-weight:bold;font-size:32.3254px;line-height:0px;font-family:Inter;-inkscape-font-specification:'Inter Bold';font-variant-position:super;letter-spacing:0px;word-spacing:0px;fill:#74c300;stroke-width:1.5;stroke-miterlimit:0"
     aria-label="CONSULTORES AMBIENTALES"
     clip-path="none"
     mask="none" /><path
     fill="#039ee2"
     d="m 311.94793,62.616052 c 1.31072,-0.170195 4.3306,-0.103675 5.73709,-0.101223 l 9.92697,0.0041 33.75109,-0.01597 c 8.94708,0.01203 15.65841,0.850992 22.54719,8.032176 5.83426,6.082922 4.98106,12.331006 4.95431,20.40125 -6.56776,0.185643 -15.22199,0.16316 -21.79678,-0.01486 -0.0744,-3.587612 -2.43425,-7.325233 -5.892,-7.874513 -1.98086,-0.314866 -4.41228,-0.154603 -6.43963,-0.142673 l -9.97623,0.03742 -13.07779,-0.03612 c -5.07258,-0.01877 -9.7918,-0.704034 -14.03937,2.811854 -3.99555,3.306858 -3.70694,7.045242 -3.70694,11.92608 l 0.003,8.507847 -0.0199,7.92331 c -0.003,1.63302 -0.10132,3.5223 0.14504,5.1258 0.76731,5.21666 5.34853,9.53766 10.07902,10.22626 2.03577,0.29621 4.76567,0.17998 6.87748,0.1783 l 11.25883,-0.0179 11.49954,0.003 c 2.64401,-0.002 6.93662,0.50494 9.03297,-1.33148 3.20854,-2.81112 3.92094,-6.76907 4.38696,-10.97523 l -22.93155,-0.024 c -2.00907,0.0206 -4.01809,-0.004 -6.02713,-0.073 0.1436,-5.6434 -0.0479,-11.82239 0.007,-17.565051 16.87344,-0.104886 33.74687,-0.08654 50.62032,0.05519 l 0.0198,19.527001 c 0,1.30365 0.007,2.63938 -0.002,3.93996 -0.0423,6.95901 0.573,12.19656 -3.99559,17.75422 -8.26282,10.05131 -18.81627,9.07906 -29.94979,9.07495 l -19.89757,-0.005 -14.83623,-0.005 c -3.46339,-0.004 -7.45753,0.15003 -10.81673,-0.49115 -8.42476,-1.60717 -16.89739,-8.99571 -17.21275,-18.84332 -0.11968,-3.75951 -0.10278,-7.44774 -0.0928,-11.21121 l 0.0125,-17.33661 -0.0168,-13.074785 c -0.003,-2.883117 -0.12534,-7.037287 0.35192,-9.753724 0.56739,-3.108522 1.88799,-5.996529 3.82522,-8.36569 3.99556,-4.932521 9.64962,-7.912741 15.68943,-8.270266 z"
     id="path40"
     style="display:inline;fill:#27add7;fill-opacity:1;stroke-width:0.15546"
     inkscape:label="G"
     clip-path="none"
     mask="none" /><path
     fill="#039ee2"
     d="m 529.05951,62.626332 c 1.41907,-0.193237 4.59467,-0.108768 6.10232,-0.103264 l 10.10911,0.004 c 11.48174,-0.01394 22.9663,-0.01041 34.45087,0.0099 4.9814,0.009 9.05569,1.797639 12.61668,5.673509 5.29505,5.762424 4.66639,12.771329 4.54826,20.313047 -7.13178,0.13717 -14.66017,0.0483 -21.81025,-0.009 -0.71723,-9.187365 -6.45109,-8.36996 -13.16801,-8.371493 l -9.00229,-0.002 -10.54648,0.002 c -1.90144,7.63e-4 -3.95194,-0.07196 -5.78446,0.05252 -4.76064,0.323541 -6.0053,5.621272 -5.54116,9.891254 0.45987,4.227222 1.89718,4.62332 5.5299,4.656314 1.54282,0.01403 3.19391,0.04058 4.69593,0.09842 l 26.38802,0.855892 c 8.85743,0.269158 19.86098,-0.608423 26.53148,6.754569 4.00964,4.42381 4.98426,11.4298 5.08129,17.38043 0.32768,19.95556 -5.14456,28.28017 -23.79747,29.93606 -2.40633,0.0956 -4.81546,0.13673 -7.22318,0.12327 l -24.67087,-0.004 c -10.35522,0.0114 -22.00572,1.56682 -30.11354,-7.2706 -4.04759,-4.41387 -4.27963,-7.52995 -4.2698,-13.46282 l 0.0226,-7.42883 c 2.95622,0.22132 6.31747,0.20817 9.30744,0.30044 4.0898,0.12589 8.27522,0.31547 12.35372,0.29865 1.31357,11.54943 5.32177,9.8471 14.35076,9.89751 7.27384,0.0406 14.62925,0.0375 21.90308,-0.0853 3.31906,-0.0562 6.3217,-0.98329 8.60427,-3.6851 3.52723,-3.70784 1.45844,-10.1879 -2.84511,-11.75321 -2.47105,-0.89848 -7.20352,-0.6993 -9.93894,-0.805 l -23.12944,-0.9095 c -5.18255,-0.17598 -11.25392,0.0382 -16.30706,-1.12612 -12.66168,-2.91688 -15.06516,-14.754246 -14.30432,-27.010939 0.36986,-5.955646 -1.13354,-11.199918 3.40907,-16.280128 4.46106,-5.1992 10.04443,-7.456165 16.4477,-7.940246 z"
     id="path41"
     style="display:inline;fill:#27add7;fill-opacity:1;stroke-width:0.15546"
     inkscape:label="S"
     clip-path="none"
     mask="none" /><path
     id="path42"
     style="display:inline;fill:#27add7;fill-opacity:1;stroke-width:0.15546"
     d="m 215.09355,62.5 -27.01454,59.88591 -7.38324,16.31438 c -1.69034,3.70053 -3.45411,7.39437 -5.02693,11.15237 7.66221,0.0705 16.58949,0.26866 24.20103,0.0411 2.33369,-5.05971 5.05082,-11.75678 7.55564,-16.47802 l 41.75577,-0.0252 c 2.47146,-0.0194 5.22437,-0.10048 7.67193,0.0252 l 7.47066,16.45504 c 7.74935,0.10592 16.28138,0.16385 24.01383,-0.0504 -1.07105,-2.70154 -2.45904,-5.61676 -3.66099,-8.27528 l -6.65147,-14.706 -15.90679,-35.527944 C 257.86798,81.909322 253.2671,71.978884 249.19118,62.501403 Z m 17.00003,16.1469 c 0.71781,0.537794 15.06653,33.02119 16.89199,37.04261 -5.29479,0.13435 -11.11444,0.023 -16.4472,0.0242 -5.62132,-0.0142 -11.58507,0.12597 -17.16991,-0.0514 0.74382,-1.45764 1.6294,-3.62151 2.35058,-5.19579 l 6.34669,-14.006701 5.10193,-11.292668 c 0.86416,-1.895741 2.24893,-4.626357 2.92592,-6.520262 z"
     inkscape:label="A1"
     clip-path="none"
     mask="none" /><path
     id="path44"
     style="display:inline;fill:#27add7;fill-opacity:1;stroke-width:0.15546"
     d="m 432.09211,62.5 c -2.71871,5.611341 -5.4586,11.960768 -8.02953,17.691326 l -12.05402,26.713504 -12.20026,26.97333 c -2.35704,5.20536 -4.96889,10.73213 -7.1599,15.98615 7.58898,0.11985 16.57669,0.2273 24.12346,0.0131 1.64922,-3.48375 3.26046,-6.9895 4.8309,-10.51577 0.85416,-1.88637 1.85614,-4.25318 2.81163,-6.03581 13.75386,0.14336 27.50786,0.15463 41.26176,0.0341 2.69055,0.0265 5.38101,0.0103 8.07156,-0.0493 l 7.45264,16.59605 c 7.82542,0.006 16.37116,0.14128 24.15009,-0.0911 l -26.03576,-57.866996 -8.09854,-18.02596 c -1.39871,-3.082998 -3.94983,-8.349473 -4.97847,-11.389219 z m 17.01714,16.056315 c 0.41509,0.387003 15.33287,33.951265 16.76398,37.166005 l -16.66973,-0.005 c -5.62595,0.0323 -11.25187,0.0276 -16.87638,-0.014 1.71393,-4.18853 3.96831,-8.84037 5.8497,-12.99079 z"
     inkscape:label="A"
     clip-path="none"
     mask="none" /><path
     fill="#039ee2"
     d="m 603.02802,62.551321 c 7.19317,-0.08924 14.49467,-0.0397 21.69066,-0.01715 0.25183,10.011948 0.0661,20.926514 0.069,31.013334 l -0.0323,56.270495 c -6.69233,0.33404 -14.91817,0.1007 -21.75538,0.12776 z"
     id="path46"
     style="display:inline;fill:#27add7;fill-opacity:1;stroke-width:0.15546"
     inkscape:label="I"
     clip-path="none"
     mask="none" /></svg>
